# xmcd
#
# Track frame offsets:
# 150
# 17869
# 33578
# 53981
# 72522
# 88731
# 105071
# 120164
# 141604
# 165053
# 179225
# 193797
# 215154
# 230951
# 242765
# 257832
# 277351
# 295033
#
# Disc length: 4152 seconds
#
#
# Revision: 0
# Processed by: cddbd v1.5.2PL0 Copyright (c) Steve Scherf et al.
# Submitted via: Nero 7, 11, 10, 0 
#
DISCID=1b103612
DTITLE=A.C. Reed - Junk Food
DYEAR=1999
DGENRE=Blues
TTITLE0=Unbekann
TTITLE1=Unbekann
TTITLE2=Unbekann
TTITLE3=Unbekann
TTITLE4=Unbekann
TTITLE5=Unbekann
TTITLE6=Unbekann
TTITLE7=Unbekann
TTITLE8=Unbekann
TTITLE9=Unbekann
TTITLE10=Unbekann
TTITLE11=Unbekann
TTITLE12=Unbekann
TTITLE13=Unbekann
TTITLE14=Unknown
TTITLE15=Unknown
TTITLE16=Unknown
TTITLE17=Unknown
EXTD=
EXTT0=Unbekann
EXTT1=Unbekann
EXTT2=Unbekann
EXTT3=Unbekann
EXTT4=Unbekann
EXTT5=Unbekann
EXTT6=Unbekann
EXTT7=Unbekann
EXTT8=Unbekann
EXTT9=Unbekann
EXTT10=Unbekann
EXTT11=Unbekann
EXTT12=Unbekann
EXTT13=Unbekann
EXTT14=Unknown
EXTT15=Unknown
EXTT16=Unknown
EXTT17=Unknown
PLAYORDER=
